<?xml version="1.0" standalone="no"?><!DOCTYPE svg PUBLIC "-//W3C//DTD SVG 1.1//EN" "http://www.w3.org/Graphics/SVG/1.1/DTD/svg11.dtd"><svg t="1718340750560" class="icon" viewBox="0 0 3802 1024" version="1.1" xmlns="http://www.w3.org/2000/svg" p-id="16652" xmlns:xlink="http://www.w3.org/1999/xlink" width="742.578125" height="200"><path d="M2723.548445 254.598295v280.682189c0 36.71247 8.654002 65.282864 25.962006 85.711184 17.308004 20.42832 43.270009 30.64248 77.910394 30.64248 39.467124 0 68.378803-12.651907 86.735037-37.906966 18.331857-25.279436 27.522164-59.724801 27.522164-103.360472V254.598295h130.882636v509.513499c0 143.437033-116.280531 259.693187-259.693187 259.693186h-86.783793v-124.642003h86.783793c78.251678 0 128.810551-57.457697 128.810551-132.442794v-71.669762h-18.697519c-22.866067 59.554159-72.035424 89.31905-147.483693 89.31905a202.479265 202.479265 0 0 1-71.694139-12.456887 155.333238 155.333238 0 0 1-58.164643-38.44327c-16.625434-17.308004-29.618626-38.955197-38.955197-64.917202-9.360948-25.962005-14.017045-56.604485-14.017045-91.927439v-322.026378h130.882635z m-2391.47855-0.804456c30.471837 0 59.383517 5.87497 86.735038 17.649288a205.672713 205.672713 0 0 1 71.669761 51.436462c20.42832 22.500405 36.71247 50.022568 48.828072 82.56649 11.018616 29.594248 17.039851 62.893872 18.039328 99.947627l0.146265 11.213636v18.697519c0 42.221778-5.899348 79.616817-17.673666 112.185117-11.774318 32.543922-27.692806 60.066086-47.779841 82.56649a195.141646 195.141646 0 0 1-71.157834 50.900157c-27.351521 11.433033-56.94577 17.137361-88.807123 17.137362-23.548636 0-43.976956-2.437747-61.28496-7.264486a163.572823 163.572823 0 0 1-45.171451-19.745751 135.904395 135.904395 0 0 1-32.202638-28.570395 213.132219 213.132219 0 0 1-18.453745-26.742084l-3.900395-6.996334H152.359187v282.534876H21.476551V268.347188h130.907013v74.790078h18.673142c13.87078-28.399752 33.933438-50.38823 60.261106-65.965433 26.327667-15.601581 59.895444-23.377994 100.752083-23.377994z m1766.708375-9.580346c36.688092 0 66.306718 6.240632 88.807123 18.69752 22.500405 12.481265 40.344713 31.861353 53.484168 58.18902h18.69752v-62.33319h130.907013v359.397038c0 20.793982 9.336571 31.178784 28.034091 31.178784h19.74575v124.642004h-89.343427c-23.548636 0-42.758082-6.923201-57.652716-20.769604-14.870257-13.846403-22.329762-31.861353-22.329763-54.020474h-18.697519c-13.846403 32.543922-33.250869 55.580631-58.164643 69.08575-24.938152 13.505118-54.020473 20.2333-87.271342 20.2333a219.641004 219.641004 0 0 1-87.758892-17.649288 207.769176 207.769176 0 0 1-72.206066-51.924011c-20.769604-22.866067-37.224397-50.558873-49.339999-83.127172-12.115603-32.519545-18.185593-69.573299-18.185592-111.136886v-16.601057c0-40.85664 5.899348-77.569109 17.673665-110.113031 11.774318-32.543922 27.692806-60.261106 47.779841-83.127172a206.233395 206.233395 0 0 1 70.109604-52.435938 204.64886 204.64886 0 0 1 85.711184-18.185593z m1351.316288 0c36.71247 0 66.306718 6.240632 88.8315 18.69752 22.500405 12.481265 40.320335 31.861353 53.484169 58.18902h18.69752v-62.33319h130.907013v359.397038c0 20.793982 9.336571 31.178784 28.03409 31.178784h19.745751v124.642004h-89.343427c-23.548636 0-42.78246-6.923201-57.652717-20.769604-14.894634-13.846403-22.329762-31.861353-22.329762-54.020474h-18.697519c-13.87078 32.543922-33.250869 55.580631-58.189021 69.08575-24.913774 13.505118-53.996096 20.2333-87.246965 20.2333a219.641004 219.641004 0 0 1-87.758891-17.649288 207.769176 207.769176 0 0 1-72.206066-51.924011c-20.769604-22.866067-37.224397-50.558873-49.339999-83.127172-12.115603-32.519545-18.185593-69.573299-18.185593-111.136886v-16.601057c0-40.85664 5.899348-77.569109 17.673666-110.113031 11.74994-32.543922 27.692806-60.261106 47.779841-83.127172a206.233395 206.233395 0 0 1 70.109603-52.435938 204.64886 204.64886 0 0 1 85.686807-18.185593z m-2487.525782 14.55335a29.252964 29.252964 0 0 1 29.252964 29.252964v361.322858h160.135599v124.642004H682.886064v-124.642004h178.05304V393.159834a9.750988 9.750988 0 0 0-9.750988-9.750988H698.902062v-124.642003z m540.692282-211.913346v211.913346h225.881636v124.642003h-225.881636v234.755035c0 20.793982 9.360948 31.178784 28.03409 31.178784h179.174404v124.642004H1452.336523c-23.548636 0-42.758082-7.605771-57.652716-22.841689-14.870257-15.235919-22.329762-34.616007-22.329762-58.189021V383.408846h-152.700472v-124.642003h152.700472V46.853497h130.882635z m-1213.754226 331.582345c-40.881017 0-73.936866 12.993191-99.216302 38.955197-23.694901 24.353092-36.298053 55.848784-37.785078 94.487074l-0.146265 7.825167v12.481265c0 42.246155 12.651907 76.350236 37.931343 102.312241s58.335285 38.955197 99.216302 38.955197c40.832262 0 73.912489-12.651907 99.191925-37.906966 23.768033-23.792411 36.371185-55.726896 37.785079-95.754701l0.121887-7.605771v-12.481265c0-43.635671-12.651907-78.081036-37.906966-103.360472-25.279436-25.255059-58.359663-37.906966-99.216302-37.906966z m1844.570014-9.555968c-38.077608 0-68.549445 12.627529-91.415512 37.906966-22.841689 25.279436-34.274723 59.724801-34.274723 103.360472v12.456887c0 43.635671 11.457411 78.081036 34.299101 103.360473 22.841689 25.279436 53.313527 37.906966 91.415512 37.906965 38.077608 0 68.549445-12.627529 91.415512-37.906965 22.841689-25.279436 34.250345-59.724801 34.250345-103.360473v-12.456887c0-43.635671-11.408656-78.081036-34.274723-103.360472-22.841689-25.279436-53.313527-37.906966-91.415512-37.906966z m1351.340666 0c-38.077608 0-68.549445 12.627529-91.415512 37.906966-22.841689 25.279436-34.274723 59.724801-34.274723 103.360472v12.456887c0 43.635671 11.433033 78.081036 34.274723 103.360473 22.866067 25.279436 53.337904 37.906966 91.415512 37.906965 38.101985 0 68.549445-12.627529 91.415512-37.906965 22.841689-25.279436 34.274723-59.724801 34.274723-103.360473v-12.456887c0-43.635671-11.433033-78.081036-34.274723-103.360472-22.866067-25.279436-53.313527-37.906966-91.415512-37.906966zM925.368757 7.386373c13.163834 0 25.791363 2.608389 37.906966 7.800791 12.115603 5.192401 22.671047 12.115603 31.69071 20.769604s16.08913 19.038804 21.305909 31.154407c5.192401 12.115603 7.80079 25.108794 7.80079 38.955196 0 13.846403-2.608389 26.815217-7.80079 38.955197a94.097034 94.097034 0 0 1-21.305909 31.154407c-9.019664 8.654002-19.575108 15.601581-31.69071 20.793982a95.29153 95.29153 0 0 1-37.906966 7.80079 94.145789 94.145789 0 0 1-38.44327-7.80079 106.675808 106.675808 0 0 1-31.154407-20.793982 94.097034 94.097034 0 0 1-21.281531-31.154407 97.826787 97.826787 0 0 1-7.80079-38.955197c0-13.846403 2.608389-26.815217 7.80079-38.955196a94.097034 94.097034 0 0 1 21.281531-31.154407c9.019664-8.654002 19.404466-15.601581 31.154407-20.769604a94.145789 94.145789 0 0 1 38.44327-7.800791z" fill="#ffffff" p-id="16653"></path></svg>