<?xml version="1.0" standalone="no"?><!DOCTYPE svg PUBLIC "-//W3C//DTD SVG 1.1//EN" "http://www.w3.org/Graphics/SVG/1.1/DTD/svg11.dtd"><svg t="1718340156819" class="icon" viewBox="0 0 1024 1024" version="1.1" xmlns="http://www.w3.org/2000/svg" p-id="11276" xmlns:xlink="http://www.w3.org/1999/xlink" width="200" height="200"><path d="M730.151147 428.168396h-2.513642c-14.381328 0-27.567646-8.035412-34.119598-20.809658-33.995976-66.384869-103.100523-111.836459-182.795332-111.836459-79.694809 0-148.799356 45.45159-182.795332 111.836459-6.551952 12.815453-19.73827 20.809658-34.119597 20.809658-21.22173 0-38.405151 17.183421-38.405151 38.405151v518.964024c0 21.22173 17.183421 38.405151 38.405151 38.405151h436.343501c21.22173 0 38.405151-17.183421 38.405151-38.405151v-519.005231c-0.041207-21.180523-17.224628-38.363944-38.405151-38.363944z m-221.24169-27.691268c-15.617545 0-28.309376-12.691831-28.309377-28.309376 0-15.617545 12.691831-28.309376 28.309377-28.309376 15.617545 0 28.309376 12.691831 28.309376 28.309376 0 15.617545-12.691831 28.309376-28.309376 28.309376z" fill="#ffffff" p-id="11277"></path><path d="M709.135453 996.828356h-10.796298v-2.884507h10.796298c1.19501 0 2.39002-0.082414 3.543823-0.206037l0.28845 2.884508c-1.236217 0.123622-2.513642 0.206036-3.832273 0.206036z m-25.301248 0h-14.504949v-2.884507h14.504949v2.884507z m-29.051106 0h-14.50495v-2.884507h14.50495v2.884507z m-29.0099 0h-14.50495v-2.884507h14.50495v2.884507z m-29.051106 0h-14.50495v-2.884507h14.50495v2.884507z m-29.0099 0H553.207243v-2.884507h14.50495v2.884507z m-29.051106 0h-14.50495v-2.884507h14.50495v2.884507z m-29.051107 0H495.10503v-2.884507h14.50495v2.884507z m-29.0099 0h-14.504949v-2.884507h14.504949v2.884507z m-29.051106 0h-14.50495v-2.884507h14.50495v2.884507z m-29.051107 0h-14.504949v-2.884507h14.504949v2.884507z m-29.009899 0h-14.50495v-2.884507h14.50495v2.884507z m-29.051107 0h-14.50495v-2.884507h14.50495v2.884507z m-29.009899 0h-14.50495v-2.884507h14.50495v2.884507z m-29.29835-1.030181c-4.944869-1.236217-9.477666-3.420201-13.515976-6.551952l1.771911-2.307606c3.708652 2.884507 7.870584 4.903662 12.403381 6.016258l-0.659316 2.8433z m421.138028-3.832274l-1.442254-2.513642c3.997103-2.307606 7.540926-5.521771 10.260604-9.27163l2.348813 1.689497c-2.966922 4.079517-6.799195 7.582133-11.167163 10.095775z m-444.337706-14.216499c-2.39002-4.49159-3.832274-9.354044-4.203139-14.422535l2.884507-0.206036c0.329658 4.656419 1.64829 9.148008 3.832273 13.268732l-2.513641 1.359839z m461.603541-9.56008l-2.8433-0.618109c0.494487-2.266398 0.700523-4.574004 0.700523-6.88161v-7.293682h2.884507v7.293682c0 2.513642-0.247243 5.027284-0.74173 7.499719z m-463.004588-19.449819h-2.884507v-14.50495h2.884507v14.50495z m463.746318-9.848532h-2.884507v-14.504949h2.884507v14.504949z m-463.746318-19.202575h-2.884507v-14.50495h2.884507v14.50495z m463.746318-9.848531h-2.884507v-14.50495h2.884507v14.50495z m-463.746318-19.202576h-2.884507v-14.504949h2.884507v14.504949z m463.746318-9.807324h-2.884507v-14.546157h2.884507v14.546157z m-463.746318-19.202575h-2.884507v-14.50495h2.884507v14.50495z m463.746318-9.848531h-2.884507v-14.50495h2.884507v14.50495z m-463.746318-19.202576h-2.884507v-14.504949h2.884507v14.504949z m463.746318-9.848531h-2.884507v-14.50495h2.884507v14.50495z m-463.746318-19.202575h-2.884507v-14.50495h2.884507v14.50495z m463.746318-9.807324h-2.884507v-14.50495h2.884507v14.50495z m-463.746318-19.202576h-2.884507v-14.504949h2.884507v14.504949z m463.746318-9.848531h-2.884507v-14.50495h2.884507v14.50495z m-463.746318-19.202575h-2.884507v-14.50495h2.884507v14.50495z m463.746318-9.807324h-2.884507v-14.50495h2.884507v14.50495z m-463.746318-19.202576h-2.884507v-14.504949h2.884507v14.504949z m463.746318-9.848531h-2.884507v-14.50495h2.884507v14.50495z m-463.746318-19.202575h-2.884507v-14.50495h2.884507v14.50495z m463.746318-9.848532h-2.884507v-14.504949h2.884507v14.504949z m-463.746318-19.202575h-2.884507v-14.50495h2.884507v14.50495z m463.746318-9.807324h-2.884507v-14.50495h2.884507v14.50495z m-463.746318-19.202575h-2.884507v-14.50495h2.884507v14.50495z m463.746318-9.848532h-2.884507v-14.504949h2.884507v14.504949z m-463.746318-19.202575h-2.884507v-14.50495h2.884507v14.50495z m463.746318-9.807324h-2.884507v-14.50495h2.884507v14.50495z m-463.746318-19.202575h-2.884507v-14.50495h2.884507v14.50495z m463.746318-9.848532h-2.884507v-14.504949h2.884507v14.504949z m-463.746318-19.202575h-2.884507v-14.50495h2.884507v14.50495z m463.746318-9.848531h-2.884507v-14.50495h2.884507v14.50495z m-463.746318-19.202576h-2.884507v-14.504949h2.884507v14.504949z m463.746318-9.807324h-2.884507v-14.546157h2.884507v14.546157z m-463.70511-19.161368l-2.884507-0.082414c0.123622-5.109698 1.318632-10.01336 3.502615-14.587365l2.637264 1.236218c-2.060362 4.203139-3.131751 8.735936-3.255372 13.433561z m459.213521-9.27163c-1.442254-4.450382-3.749859-8.488692-6.88161-11.991308l2.183984-1.93674c3.420201 3.791066 5.933843 8.200241 7.458511 13.021489l-2.760885 0.906559z m-447.551872-15.081851l-1.895533-2.225191c3.873481-3.296579 8.323863-5.727807 13.186318-7.17006l0.824145 2.802092c-4.49159 1.318632-8.571107 3.543823-12.11493 6.593159z m429.544306-5.027284c-4.244346-1.895533-8.777143-2.884507-13.474768-2.925714v-2.884507c5.109698 0.041207 10.054567 1.071388 14.669778 3.172958l-1.19501 2.637263z m-15.905996-2.925714c-5.109698 0-10.054567-1.030181-14.669778-3.13175l1.19501-2.637264c4.285553 1.895533 8.81835 2.8433 13.515976 2.8433v2.925714h-0.041208z m-387.389295-0.329658l-0.370866-2.884507c4.656419-0.618109 9.024386-2.142777 13.021489-4.615211l1.524668 2.472435c-4.367968 2.678471-9.106801 4.367968-14.175291 5.027283z m360.56338-11.620442c-2.101569-2.307606-3.873481-4.903662-5.315735-7.705755-0.824145-1.607082-1.689497-3.255372-2.596056-4.862455l2.554849-1.401046c0.906559 1.64829 1.771911 3.296579 2.637264 4.944869 1.318632 2.554849 2.966922 4.944869 4.862454 7.046439l-2.142776 1.977948z m-335.509376-3.708652l-2.390021-1.64829c0.782938-1.153803 1.524668-2.39002 2.183984-3.667445 1.524668-3.008129 3.172958-5.97505 4.862455-8.900764l2.513642 1.442253c-1.689497 2.884507-3.296579 5.810221-4.78004 8.735936-0.700523 1.442254-1.483461 2.802093-2.39002 4.03831z m320.221489-21.139316c-2.637264-3.997103-5.439356-7.952998-8.365071-11.702857l2.307606-1.771912c2.966922 3.832274 5.851429 7.829376 8.488692 11.908894l-2.431227 1.565875z m-305.304467-3.749859l-2.39002-1.64829c2.760885-3.997103 5.727807-7.911791 8.777142-11.702857l2.266399 1.854326c-3.049336 3.708652-5.933843 7.582133-8.653521 11.496821z m287.667766-18.99654c-3.214165-3.543823-6.593159-7.005231-10.095774-10.260603l1.977947-2.10157c3.543823 3.337787 6.964024 6.840402 10.260604 10.425433l-2.142777 1.93674z m-269.495372-3.296579l-2.101569-2.019155c3.337787-3.502616 6.88161-6.964024 10.507847-10.178189l1.93674 2.142777c-3.58503 3.214165-7.046439 6.593159-10.343018 10.054567z m248.520885-16.44169c-3.708652-3.008129-7.62334-5.892636-11.538028-8.571107l1.64829-2.39002c3.997103 2.719678 7.952998 5.6866 11.744064 8.735936l-1.854326 2.225191z m-227.093118-2.760886l-1.771912-2.307605c3.873481-2.966922 7.870584-5.810221 11.950101-8.447485l1.565875 2.431227c-3.997103 2.596056-7.952998 5.398149-11.744064 8.323863z m203.357746-13.515975c-4.161932-2.39002-8.447485-4.615211-12.733038-6.675574l1.236217-2.637263c4.367968 2.060362 8.735936 4.367968 12.939075 6.799195l-1.442254 2.513642z m-179.251509-2.183984l-1.401046-2.554849c4.285553-2.307606 8.694728-4.49159 13.103903-6.469538l1.19501 2.637264c-4.326761 1.977948-8.694728 4.120724-12.897867 6.387123z m153.290946-10.136982c-4.450382-1.689497-9.065594-3.255372-13.639598-4.615211l0.824145-2.802093c4.656419 1.359839 9.312837 2.925714 13.845634 4.656419l-1.030181 2.760885z m-127.000725-1.565875l-0.947766-2.719678c4.574004-1.607082 9.27163-3.090543 13.969255-4.326761l0.741731 2.802093c-4.615211 1.236217-9.230423 2.678471-13.76322 4.244346z m99.391872-6.551952c-4.656419-0.988974-9.436459-1.771911-14.175292-2.39002l0.370865-2.884507c4.821247 0.618109 9.683702 1.442254 14.422535 2.431227l-0.618108 2.8433z m-71.576982-0.865352l-0.535694-2.8433c4.78004-0.865352 9.642495-1.565875 14.463742-2.101569l0.288451 2.884507c-4.697626 0.494487-9.518873 1.19501-14.216499 2.060362z m43.020362-2.802093c-4.78004-0.247243-9.601288-0.288451-14.381328-0.164829l-0.082415-2.884507c4.862455-0.123622 9.807324-0.082414 14.628572 0.164829l-0.164829 2.884507z" fill="#ffffff" p-id="11278"></path><path d="M491.478793 349.721755c4.656419 5.604185 14.092877 15.069901 18.996539 20.715293 7.705755 8.81835 21.922254 6.88161 26.90833-3.708652 11.620443-24.765553 28.144547-63.788813 39.929819-107.18004 16.936177-62.305352 27.073159-145.75002-15.040644-201.833079-3.214165-4.244346-6.716781-8.36507-10.507847-12.279758-41.495694-42.60829-101.20499-47.759195-138.868411-12.032515-28.886278 27.444024-37.787042 72.607163-25.012796 127.247967 11.249577 48.047646 26.619879 85.216579 69.434205 142.577063l-9.683702 2.884507c-14.710986-19.573441-12.362173-17.801529-23.529336-36.550825-22.457948-37.663421-37.787042-73.55493-45.534004-106.726761-7.046439-30.122495-7.829376-57.607726-2.307606-81.713963 5.027284-21.881046 15.411509-40.795171 30.040081-54.682013 19.614648-18.584467 45.822455-27.773682 73.884587-25.836941 28.55662 1.977948 56.412716 15.493924 78.458592 38.1167 25.424869 26.084185 39.76499 61.481207 42.567082 105.160885 2.225191 34.53167-2.719678 74.337867-14.669779 118.305996-12.774245 46.893843-32.388893 91.274044-45.163138 117.729095-5.892636 12.156137-22.210704 14.422535-31.193884 4.367968-6.922817-7.788169-21.174754-21.776792-25.460307-26.88649 1.293907-1.925202 2.322852-3.32254 3.088071-4.192013 0.735549-0.835683 1.956932-1.996491 3.664148-3.482012z" fill="#ffffff" p-id="11279"></path></svg>