<?xml version="1.0" standalone="no"?>
<!DOCTYPE svg PUBLIC "-//W3C//DTD SVG 20010904//EN"
 "http://www.w3.org/TR/2001/REC-SVG-20010904/DTD/svg10.dtd">
<svg version="1.0" xmlns="http://www.w3.org/2000/svg"
 width="200.000000pt" height="100.000000pt" viewBox="0 0 200.000000 100.000000"
 preserveAspectRatio="xMidYMid meet">

<g transform="translate(0.000000,100.000000) scale(0.100000,-0.100000)"
fill="#000000" stroke="none">
<path d="M170 532 c0 -82 8 -99 53 -115 9 -4 17 -11 17 -17 0 -5 11 -10 25
-10 14 0 25 5 25 10 0 6 11 15 24 21 33 16 46 50 46 124 0 58 -2 65 -20 65
-18 0 -20 -7 -20 -68 0 -79 -9 -92 -62 -92 -47 0 -58 18 -58 99 0 48 -3 61
-15 61 -12 0 -15 -15 -15 -78z"/>
<path d="M440 599 c-59 -24 -84 -82 -60 -140 17 -41 47 -59 95 -59 113 1 144
152 40 196 -39 16 -41 16 -75 3z m90 -44 c33 -35 31 -81 -4 -112 -34 -29 -68
-29 -102 0 -54 47 -20 137 51 137 21 0 40 -9 55 -25z"/>
<path d="M590 525 c0 -71 3 -88 20 -105 38 -38 102 -38 140 0 17 17 20 34 20
105 0 78 -2 85 -20 85 -18 0 -20 -7 -20 -85 0 -82 -1 -85 -25 -91 -14 -3 -36
-3 -50 0 -24 6 -25 9 -25 91 0 78 -2 85 -20 85 -18 0 -20 -7 -20 -85z"/>
<path d="M780 500 c0 -90 3 -110 15 -110 11 0 15 18 17 78 l3 77 59 -77 c32
-43 65 -78 72 -78 11 0 14 23 14 110 0 90 -3 110 -15 110 -11 0 -15 -17 -17
-72 l-3 -73 -55 72 c-30 40 -63 72 -72 72 -16 1 -18 -11 -18 -109z"/>
<path d="M1011 584 c-60 -50 -46 -150 25 -180 67 -28 133 3 149 69 7 27 7 27
-44 27 -39 0 -51 -4 -51 -15 0 -8 9 -15 19 -15 28 0 35 -17 12 -29 -56 -31
-114 5 -109 66 6 69 81 94 126 43 17 -21 42 -27 42 -11 0 65 -110 95 -169 45z"/>
<path d="M1230 540 c0 -81 16 -120 55 -138 37 -17 65 -15 101 7 29 18 31 18
53 0 36 -29 87 -25 122 10 27 28 29 34 29 110 0 65 -3 81 -15 81 -12 0 -15
-14 -15 -64 0 -73 -24 -116 -66 -116 -45 0 -64 32 -64 110 0 63 -2 70 -20 70
-18 0 -20 -7 -20 -74 0 -66 -3 -77 -22 -90 -30 -21 -54 -20 -78 4 -16 16 -20
33 -20 90 0 63 -2 70 -20 70 -18 0 -20 -7 -20 -70z"/>
<path d="M1610 505 c0 -87 3 -105 15 -105 12 0 15 18 15 105 0 87 -3 105 -15
105 -12 0 -15 -18 -15 -105z"/>
<path d="M1660 500 l0 -110 65 0 c58 0 65 2 65 20 0 17 -7 20 -50 20 l-50 0 0
90 c0 73 -3 90 -15 90 -12 0 -15 -19 -15 -110z"/>
<path d="M1800 500 l0 -110 70 0 c63 0 70 2 70 20 0 17 -7 20 -50 20 l-50 0 0
90 c0 83 -1 90 -20 90 -19 0 -20 -7 -20 -110z"/>
</g>
</svg>
